# xmcd
#
# Track frame offsets:
#	150
#	13184
#	23052
#	36184
#	47812
#	61356
#	72611
#	82444
#	95493
#	106915
#	119233
#	131822
#	141826
#	153660
#
# Disc length: 2230 seconds
#
# Revision: 1
# Processed by: cddbd v1.5.2PL0 Copyright (c) Steve Scherf et al.
# Submitted via: audiograbber 1.83.01
#
DISCID=d708b40e
DTITLE=Koch präsent - Starke Volksmusik aus dem Zillertal
DYEAR=2005
DGENRE=
TTITLE0=Zellberg Buam and Marc Pircher - Mit Musik ins Wochenende
TTITLE1=Ursprung Buam - S'Original vom Zillertal
TTITLE2=Die Zillertaler - So a super Tag
TTITLE3=Zellberg Buam - Lasst sie's umma
TTITLE4=Die jungen Zillertaler - Auf der Bruck trara
TTITLE5=Marc Pircher - Mei' Herz schlägt für die Volksmusik
TTITLE6=Die Hegl - Boarisch gspielt
TTITLE7=Ursprung Buam - Verliebt in Volksmusik
TTITLE8=Bergzigeuner aus dem Zillertal - Tirolerland Polka
TTITLE9=Original Mayrhofner Trio - Ja, ja die Volksmusik
TTITLE10=Zellberg Buam - Tirolerzeit
TTITLE11=Die Zillertaler - Der Liebe Gott muss a Tiroler sein
TTITLE12=Marc Pircher - A bisserl Herz
TTITLE13=Die jungen Zillertaler - Gipfelwind im Bluat
EXTD=
EXTT0=
EXTT1=
EXTT2=
EXTT3=
EXTT4=
EXTT5=
EXTT6=
EXTT7=
EXTT8=
EXTT9=
EXTT10=
EXTT11=
EXTT12=
EXTT13=
PLAYORDER=
